<svg width="34" height="34" viewBox="0 0 34 34" fill="none" xmlns="http://www.w3.org/2000/svg">
<g clip-path="url(#clip0_1_44)">
<path d="M24.0833 28.3333H3.54167C2.6027 28.3322 1.70252 27.9587 1.03857 27.2948C0.374625 26.6308 0.00112473 25.7306 0 24.7917L0 3.54167C0 1.5895 1.5895 0 3.54167 0H14.875C15.0227 8.42905e-06 15.1666 0.0461671 15.2868 0.132021C15.4069 0.217875 15.4972 0.339131 15.5451 0.478833L24.7534 27.3955C24.7893 27.5021 24.7993 27.6158 24.7827 27.727C24.7661 27.8383 24.7234 27.9441 24.658 28.0356C24.5926 28.1272 24.5064 28.2019 24.4065 28.2536C24.3066 28.3054 24.1958 28.3327 24.0833 28.3333ZM3.54167 1.41667C2.37008 1.41667 1.41667 2.37008 1.41667 3.54167V24.7917C1.41667 25.9632 2.37008 26.9167 3.54167 26.9167H23.0917L14.3692 1.41667H3.54167Z" fill="black"/>
<path d="M30.4584 34H19.125C18.9809 34 18.8403 33.956 18.7218 33.874C18.6034 33.792 18.5127 33.6758 18.462 33.541L16.337 27.8743C16.2709 27.6985 16.2773 27.5035 16.3549 27.3325C16.4325 27.1614 16.5748 27.0281 16.7507 26.962C16.9265 26.8958 17.1214 26.9023 17.2925 26.9798C17.4636 27.0574 17.5969 27.1998 17.663 27.3756L19.6166 32.5833H30.4584C31.6299 32.5833 32.5834 31.6299 32.5834 30.4583V9.20829C32.5834 8.03671 31.6299 7.08329 30.4584 7.08329H17C16.8122 7.08329 16.632 7.00866 16.4992 6.87583C16.3663 6.74299 16.2917 6.56282 16.2917 6.37496C16.2917 6.1871 16.3663 6.00693 16.4992 5.87409C16.632 5.74125 16.8122 5.66663 17 5.66663H30.4584C32.4105 5.66663 34 7.25613 34 9.20829V30.4583C34 32.4105 32.4105 34 30.4584 34Z" fill="black"/>
<path d="M19.125 34C18.9887 34.0001 18.8554 33.9609 18.7408 33.8871C18.6263 33.8133 18.5355 33.7081 18.4793 33.584C18.423 33.4599 18.4038 33.3222 18.4239 33.1874C18.4439 33.0527 18.5024 32.9265 18.5923 32.8242L23.5507 27.1575C23.612 27.0875 23.6865 27.0302 23.7699 26.9889C23.8533 26.9477 23.9441 26.9233 24.037 26.9171C24.1298 26.9109 24.223 26.9231 24.3112 26.9529C24.3993 26.9827 24.4808 27.0296 24.5508 27.0909C24.6209 27.1522 24.6782 27.2267 24.7194 27.3102C24.7607 27.3936 24.7851 27.4844 24.7913 27.5772C24.7974 27.6701 24.7853 27.7633 24.7554 27.8515C24.7256 27.9396 24.6787 28.0211 24.6174 28.0911L19.6591 33.7578C19.5924 33.8338 19.5103 33.8947 19.4182 33.9365C19.3261 33.9783 19.2261 33.9999 19.125 34ZM13.4583 19.8334C13.3121 19.8336 13.1694 19.7885 13.0499 19.7042C12.9304 19.62 12.84 19.5008 12.7911 19.363L9.91666 11.3149L7.04224 19.363C6.97912 19.54 6.84828 19.6846 6.67852 19.7651C6.50875 19.8456 6.31396 19.8554 6.13699 19.7923C5.96002 19.7292 5.81538 19.5983 5.73488 19.4286C5.65438 19.2588 5.64462 19.064 5.70774 18.887L9.24941 8.97036C9.45057 8.40653 10.3827 8.40653 10.5825 8.97036L14.1242 18.887C14.1623 18.9938 14.1742 19.1082 14.1589 19.2205C14.1436 19.3329 14.1016 19.4399 14.0363 19.5326C13.9711 19.6254 13.8845 19.7011 13.784 19.7534C13.6834 19.8057 13.5717 19.8331 13.4583 19.8334Z" fill="black"/>
<path d="M11.3334 15.5833H8.50002C8.31216 15.5833 8.13199 15.5087 7.99915 15.3758C7.86631 15.243 7.79169 15.0628 7.79169 14.875C7.79169 14.6871 7.86631 14.5069 7.99915 14.3741C8.13199 14.2413 8.31216 14.1666 8.50002 14.1666H11.3334C11.5212 14.1666 11.7014 14.2413 11.8342 14.3741C11.9671 14.5069 12.0417 14.6871 12.0417 14.875C12.0417 15.0628 11.9671 15.243 11.8342 15.3758C11.7014 15.5087 11.5212 15.5833 11.3334 15.5833ZM30.4584 15.5833H20.5417C20.3538 15.5833 20.1737 15.5087 20.0408 15.3758C19.908 15.243 19.8334 15.0628 19.8334 14.875C19.8334 14.6871 19.908 14.5069 20.0408 14.3741C20.1737 14.2413 20.3538 14.1666 20.5417 14.1666H30.4584C30.6462 14.1666 30.8264 14.2413 30.9592 14.3741C31.0921 14.5069 31.1667 14.6871 31.1667 14.875C31.1667 15.0628 31.0921 15.243 30.9592 15.3758C30.8264 15.5087 30.6462 15.5833 30.4584 15.5833Z" fill="black"/>
<path d="M24.7917 15.5833C24.6038 15.5833 24.4236 15.5087 24.2908 15.3759C24.158 15.243 24.0833 15.0629 24.0833 14.875V13.4583C24.0833 13.2705 24.158 13.0903 24.2908 12.9575C24.4236 12.8246 24.6038 12.75 24.7917 12.75C24.9795 12.75 25.1597 12.8246 25.2925 12.9575C25.4254 13.0903 25.5 13.2705 25.5 13.4583V14.875C25.5 15.0629 25.4254 15.243 25.2925 15.3759C25.1597 15.5087 24.9795 15.5833 24.7917 15.5833ZM22.6667 24.0833C22.5157 24.0851 22.3681 24.0384 22.2456 23.9501C22.1232 23.8618 22.0323 23.7366 21.9863 23.5927C21.9403 23.4489 21.9417 23.2941 21.9902 23.1512C22.0387 23.0082 22.1318 22.8845 22.2558 22.7984C25.3569 20.5955 27.625 16.1018 27.625 14.8764C27.625 14.6886 27.6996 14.5084 27.8325 14.3755C27.9653 14.2427 28.1455 14.1681 28.3333 14.1681C28.5212 14.1681 28.7014 14.2427 28.8342 14.3755C28.967 14.5084 29.0417 14.6886 29.0417 14.8764C29.0417 16.7436 26.3117 21.6552 23.0775 23.9544C22.957 24.0384 22.8136 24.0834 22.6667 24.0833Z" fill="black"/>
<path d="M28.3333 25.5C28.1564 25.5007 27.9859 25.4344 27.8559 25.3144C27.3417 24.8441 22.8154 20.6635 22.0107 18.683C21.9474 18.5106 21.9536 18.3203 22.0279 18.1523C22.1023 17.9843 22.239 17.8517 22.4092 17.7826C22.5794 17.7135 22.7698 17.7132 22.9402 17.7818C23.1106 17.8505 23.2477 17.9826 23.3226 18.1504C23.902 19.5769 27.4819 23.0506 28.8121 24.2689C28.9176 24.3653 28.9914 24.4914 29.0239 24.6305C29.0564 24.7696 29.0461 24.9153 28.9943 25.0485C28.9425 25.1816 28.8517 25.296 28.7337 25.3766C28.6158 25.4572 28.4762 25.5002 28.3333 25.5Z" fill="black"/>
</g>
<defs>
<clipPath id="clip0_1_44">
<rect width="34" height="34" fill="white"/>
</clipPath>
</defs>
</svg>
